<?xml version="1.0" encoding="UTF-8" standalone="no"?>
<svg
   viewBox="0 0 472.63953 361.53357"
   x="0px"
   y="0px"
   version="1.1"
   id="svg5"
   sodipodi:docname="noun-abnormal-stun-2359991.svg"
   width="472.63953"
   height="361.53357"
   inkscape:version="1.4.3 (0d15f75042, 2025-12-25)"
   xmlns:inkscape="http://www.inkscape.org/namespaces/inkscape"
   xmlns:sodipodi="http://sodipodi.sourceforge.net/DTD/sodipodi-0.dtd"
   xmlns="http://www.w3.org/2000/svg"
   xmlns:svg="http://www.w3.org/2000/svg">
  <defs
     id="defs5" />
  <sodipodi:namedview
     id="namedview5"
     pagecolor="#ffffff"
     bordercolor="#666666"
     borderopacity="1.0"
     inkscape:showpageshadow="2"
     inkscape:pageopacity="0.0"
     inkscape:pagecheckerboard="0"
     inkscape:deskcolor="#d1d1d1"
     inkscape:zoom="2.8921875"
     inkscape:cx="236.32631"
     inkscape:cy="299.94598"
     inkscape:window-width="3840"
     inkscape:window-height="2083"
     inkscape:window-x="0"
     inkscape:window-y="0"
     inkscape:window-maximized="1"
     inkscape:current-layer="svg5" />
  <title
     id="title1">abnormal Stun</title>
  <path
     d="m 215.73551,239.76634 a 7.08,7.08 0 0 0 -3.92,-12.08 l -63,-9.16 a 7.12,7.12 0 0 1 -5.34,-3.88 l -28.16,-57.1 a 7.08,7.08 0 0 0 -12.7,0 l -28.180002,57.1 a 7.09,7.09 0 0 1 -5.33,3.88 l -63.0000005,9.16 a 7.08,7.08 0 0 0 -3.97,12.08 l 45.6000005,44.44 a 7.06,7.06 0 0 1 2,6.27 l -10.73,62.76 a 7.09,7.09 0 0 0 10.31,7.47 l 56.360002,-29.64 a 7.11,7.11 0 0 1 6.59,0 l 56.36,29.64 a 7.08,7.08 0 0 0 10.27,-7.47 l -10.76,-62.76 a 7.1,7.1 0 0 1 2,-6.27 z"
     id="path1" />
  <path
     d="m 388.41551,100.51634 -35.66,5.19 a 4,4 0 0 0 -2.23,6.83 l 25.79,25.16 a 4,4 0 0 1 1.15,3.55 l -6.07,35.52 a 4,4 0 0 0 5.82,4.22 l 31.9,-16.77 a 4,4 0 0 1 3.73,0 l 31.9,16.77 a 4,4 0 0 0 5.81,-4.22 l -6.09,-35.52 a 4,4 0 0 1 1.15,-3.55 l 25.81,-25.16 a 4,4 0 0 0 -2.22,-6.83 l -35.66,-5.19 a 4,4 0 0 1 -3,-2.189997 l -15.95,-32.32 a 4,4 0 0 0 -7.19,0 l -15.95,32.32 a 4,4 0 0 1 -3.04,2.189997 z"
     id="path2" />
  <path
     d="m 259.22551,333.83634 c 0.46,0 0.93,0 1.4,-0.06 72.78,-6.79 134.26,-46.38 160.43,-103.33 a 14.853553,14.853553 0 1 0 -27,-12.39 c -21.76,47.34 -74,80.35 -136.22,86.16 a 14.84,14.84 0 0 0 1.36,29.62 z"
     id="path3" />
  <path
     d="m 242.00551,30.036343 c 33.92,2 66.22,11.91 93.4,28.76 a 14.842191,14.842191 0 1 0 15.64,-25.23 c -31.37,-19.45 -68.49,-30.9200003 -107.32,-33.17000034 -47.48,-2.72999996 -94.3,8.71000004 -131.83,32.25000034 -37.860002,23.75 -64.050002,58.21 -73.730002,97.059997 a 14.85,14.85 0 0 0 28.81,7.18 C 83.315508,71.156343 158.62551,25.226343 242.00551,30.036343 Z"
     id="path4" />
</svg>
